<mxfile host="65bd71144e">
    <diagram id="C5RBs43oDa-KdzZeNtuy" name="Page-1">
        <mxGraphModel dx="1851" dy="707" grid="1" gridSize="10" guides="1" tooltips="1" connect="1" arrows="1" fold="1" page="1" pageScale="1" pageWidth="827" pageHeight="1169" math="0" shadow="0">
            <root>
                <mxCell id="WIyWlLk6GJQsqaUBKTNV-0"/>
                <mxCell id="WIyWlLk6GJQsqaUBKTNV-1" parent="WIyWlLk6GJQsqaUBKTNV-0"/>
                <mxCell id="CilM16NHA7BIHXgF7O5n-0" value="Classname" style="swimlane;fontStyle=1;align=center;verticalAlign=top;childLayout=stackLayout;horizontal=1;startSize=0;horizontalStack=0;resizeParent=1;resizeParentMax=0;resizeLast=0;collapsible=1;marginBottom=0;" parent="WIyWlLk6GJQsqaUBKTNV-1" vertex="1">
                    <mxGeometry x="130" y="180" width="160" height="140" as="geometry"/>
                </mxCell>
                <mxCell id="CilM16NHA7BIHXgF7O5n-4" value="«interface»&lt;br&gt;&lt;b&gt;TempleBuilder&lt;/b&gt;" style="html=1;" parent="CilM16NHA7BIHXgF7O5n-0" vertex="1">
                    <mxGeometry width="160" height="50" as="geometry"/>
                </mxCell>
                <mxCell id="CilM16NHA7BIHXgF7O5n-2" value="" style="line;strokeWidth=1;fillColor=none;align=left;verticalAlign=middle;spacingTop=-1;spacingLeft=3;spacingRight=3;rotatable=0;labelPosition=right;points=[];portConstraint=eastwest;" parent="CilM16NHA7BIHXgF7O5n-0" vertex="1">
                    <mxGeometry y="50" width="160" height="8" as="geometry"/>
                </mxCell>
                <mxCell id="CilM16NHA7BIHXgF7O5n-3" value="+ reset()&#10;+ buildDoor()&#10;+ buildWalls()&#10;+ buildRoof&#10;+ putOnTheGod" style="text;strokeColor=none;fillColor=none;align=left;verticalAlign=top;spacingLeft=4;spacingRight=4;overflow=hidden;rotatable=0;points=[[0,0.5],[1,0.5]];portConstraint=eastwest;" parent="CilM16NHA7BIHXgF7O5n-0" vertex="1">
                    <mxGeometry y="58" width="160" height="82" as="geometry"/>
                </mxCell>
                <mxCell id="CilM16NHA7BIHXgF7O5n-9" style="edgeStyle=orthogonalEdgeStyle;rounded=1;orthogonalLoop=1;jettySize=auto;html=1;entryX=0.281;entryY=1.012;entryDx=0;entryDy=0;entryPerimeter=0;endArrow=block;endFill=0;" parent="WIyWlLk6GJQsqaUBKTNV-1" source="CilM16NHA7BIHXgF7O5n-5" target="CilM16NHA7BIHXgF7O5n-3" edge="1">
                    <mxGeometry relative="1" as="geometry"/>
                </mxCell>
                <mxCell id="CilM16NHA7BIHXgF7O5n-20" style="edgeStyle=orthogonalEdgeStyle;rounded=0;orthogonalLoop=1;jettySize=auto;html=1;endArrow=open;endFill=0;" parent="WIyWlLk6GJQsqaUBKTNV-1" source="CilM16NHA7BIHXgF7O5n-5" target="CilM16NHA7BIHXgF7O5n-16" edge="1">
                    <mxGeometry relative="1" as="geometry"/>
                </mxCell>
                <mxCell id="CilM16NHA7BIHXgF7O5n-5" value="MoneyGodTempleBuilder" style="swimlane;fontStyle=1;align=center;verticalAlign=top;childLayout=stackLayout;horizontal=1;startSize=26;horizontalStack=0;resizeParent=1;resizeParentMax=0;resizeLast=0;collapsible=1;marginBottom=0;" parent="WIyWlLk6GJQsqaUBKTNV-1" vertex="1">
                    <mxGeometry y="360" width="200" height="170" as="geometry"/>
                </mxCell>
                <mxCell id="CilM16NHA7BIHXgF7O5n-6" value="+ result: MoneyGodTemple" style="text;strokeColor=none;fillColor=none;align=left;verticalAlign=top;spacingLeft=4;spacingRight=4;overflow=hidden;rotatable=0;points=[[0,0.5],[1,0.5]];portConstraint=eastwest;" parent="CilM16NHA7BIHXgF7O5n-5" vertex="1">
                    <mxGeometry y="26" width="200" height="26" as="geometry"/>
                </mxCell>
                <mxCell id="CilM16NHA7BIHXgF7O5n-7" value="" style="line;strokeWidth=1;fillColor=none;align=left;verticalAlign=middle;spacingTop=-1;spacingLeft=3;spacingRight=3;rotatable=0;labelPosition=right;points=[];portConstraint=eastwest;" parent="CilM16NHA7BIHXgF7O5n-5" vertex="1">
                    <mxGeometry y="52" width="200" height="8" as="geometry"/>
                </mxCell>
                <mxCell id="CilM16NHA7BIHXgF7O5n-8" value="+ reset()&#10;+ buildDoor()&#10;+ buildWalls()&#10;+ buildRoof&#10;+ putOnTheGod&#10;+ getTemple(): MoneyGodTemple" style="text;strokeColor=none;fillColor=none;align=left;verticalAlign=top;spacingLeft=4;spacingRight=4;overflow=hidden;rotatable=0;points=[[0,0.5],[1,0.5]];portConstraint=eastwest;" parent="CilM16NHA7BIHXgF7O5n-5" vertex="1">
                    <mxGeometry y="60" width="200" height="110" as="geometry"/>
                </mxCell>
                <mxCell id="CilM16NHA7BIHXgF7O5n-15" style="edgeStyle=orthogonalEdgeStyle;rounded=1;orthogonalLoop=1;jettySize=auto;html=1;entryX=0.694;entryY=1;entryDx=0;entryDy=0;entryPerimeter=0;endArrow=block;endFill=0;" parent="WIyWlLk6GJQsqaUBKTNV-1" source="CilM16NHA7BIHXgF7O5n-10" target="CilM16NHA7BIHXgF7O5n-3" edge="1">
                    <mxGeometry relative="1" as="geometry"/>
                </mxCell>
                <mxCell id="CilM16NHA7BIHXgF7O5n-19" style="edgeStyle=orthogonalEdgeStyle;rounded=0;orthogonalLoop=1;jettySize=auto;html=1;endArrow=open;endFill=0;" parent="WIyWlLk6GJQsqaUBKTNV-1" source="CilM16NHA7BIHXgF7O5n-10" target="CilM16NHA7BIHXgF7O5n-17" edge="1">
                    <mxGeometry relative="1" as="geometry"/>
                </mxCell>
                <mxCell id="CilM16NHA7BIHXgF7O5n-10" value="MazuGodTempleBuilder" style="swimlane;fontStyle=1;align=center;verticalAlign=top;childLayout=stackLayout;horizontal=1;startSize=26;horizontalStack=0;resizeParent=1;resizeParentMax=0;resizeLast=0;collapsible=1;marginBottom=0;" parent="WIyWlLk6GJQsqaUBKTNV-1" vertex="1">
                    <mxGeometry x="240" y="360" width="200" height="170" as="geometry"/>
                </mxCell>
                <mxCell id="CilM16NHA7BIHXgF7O5n-11" value="+ result: MazuGodTemple" style="text;strokeColor=none;fillColor=none;align=left;verticalAlign=top;spacingLeft=4;spacingRight=4;overflow=hidden;rotatable=0;points=[[0,0.5],[1,0.5]];portConstraint=eastwest;" parent="CilM16NHA7BIHXgF7O5n-10" vertex="1">
                    <mxGeometry y="26" width="200" height="26" as="geometry"/>
                </mxCell>
                <mxCell id="CilM16NHA7BIHXgF7O5n-12" value="" style="line;strokeWidth=1;fillColor=none;align=left;verticalAlign=middle;spacingTop=-1;spacingLeft=3;spacingRight=3;rotatable=0;labelPosition=right;points=[];portConstraint=eastwest;" parent="CilM16NHA7BIHXgF7O5n-10" vertex="1">
                    <mxGeometry y="52" width="200" height="8" as="geometry"/>
                </mxCell>
                <mxCell id="CilM16NHA7BIHXgF7O5n-13" value="+ reset()&#10;+ buildDoor()&#10;+ buildWalls()&#10;+ buildRoof&#10;+ putOnTheGod&#10;+ getTemple(): MazuGodTemple" style="text;strokeColor=none;fillColor=none;align=left;verticalAlign=top;spacingLeft=4;spacingRight=4;overflow=hidden;rotatable=0;points=[[0,0.5],[1,0.5]];portConstraint=eastwest;" parent="CilM16NHA7BIHXgF7O5n-10" vertex="1">
                    <mxGeometry y="60" width="200" height="110" as="geometry"/>
                </mxCell>
                <mxCell id="CilM16NHA7BIHXgF7O5n-16" value="&lt;span style=&quot;text-align: left&quot;&gt;MoneyGodTemple&lt;/span&gt;" style="html=1;" parent="WIyWlLk6GJQsqaUBKTNV-1" vertex="1">
                    <mxGeometry x="45" y="585" width="110" height="50" as="geometry"/>
                </mxCell>
                <mxCell id="CilM16NHA7BIHXgF7O5n-17" value="&lt;span style=&quot;text-align: left&quot;&gt;MazuGodTemple&lt;/span&gt;" style="html=1;" parent="WIyWlLk6GJQsqaUBKTNV-1" vertex="1">
                    <mxGeometry x="285" y="585" width="110" height="50" as="geometry"/>
                </mxCell>
                <mxCell id="CilM16NHA7BIHXgF7O5n-26" style="edgeStyle=orthogonalEdgeStyle;rounded=1;orthogonalLoop=1;jettySize=auto;html=1;exitX=1;exitY=0.5;exitDx=0;exitDy=0;entryX=0.5;entryY=0;entryDx=0;entryDy=0;endArrow=open;endFill=0;" parent="WIyWlLk6GJQsqaUBKTNV-1" source="CilM16NHA7BIHXgF7O5n-21" target="CilM16NHA7BIHXgF7O5n-22" edge="1">
                    <mxGeometry relative="1" as="geometry"/>
                </mxCell>
                <mxCell id="1" style="edgeStyle=orthogonalEdgeStyle;html=1;exitX=0;exitY=0.25;exitDx=0;exitDy=0;entryX=0;entryY=0.5;entryDx=0;entryDy=0;dashed=1;" edge="1" parent="WIyWlLk6GJQsqaUBKTNV-1" source="CilM16NHA7BIHXgF7O5n-21" target="CilM16NHA7BIHXgF7O5n-16">
                    <mxGeometry relative="1" as="geometry">
                        <Array as="points">
                            <mxPoint x="-20" y="83"/>
                            <mxPoint x="-20" y="610"/>
                        </Array>
                    </mxGeometry>
                </mxCell>
                <mxCell id="3" style="edgeStyle=orthogonalEdgeStyle;rounded=1;html=1;exitX=0;exitY=0.75;exitDx=0;exitDy=0;entryX=1;entryY=0.5;entryDx=0;entryDy=0;dashed=1;" edge="1" parent="WIyWlLk6GJQsqaUBKTNV-1" source="CilM16NHA7BIHXgF7O5n-21" target="CilM16NHA7BIHXgF7O5n-17">
                    <mxGeometry relative="1" as="geometry">
                        <Array as="points">
                            <mxPoint x="300" y="107"/>
                            <mxPoint x="300" y="160"/>
                            <mxPoint x="450" y="160"/>
                            <mxPoint x="450" y="610"/>
                        </Array>
                    </mxGeometry>
                </mxCell>
                <mxCell id="CilM16NHA7BIHXgF7O5n-21" value="Cilent" style="html=1;" parent="WIyWlLk6GJQsqaUBKTNV-1" vertex="1">
                    <mxGeometry x="310" y="70" width="110" height="50" as="geometry"/>
                </mxCell>
                <mxCell id="CilM16NHA7BIHXgF7O5n-22" value="Director" style="swimlane;fontStyle=1;align=center;verticalAlign=top;childLayout=stackLayout;horizontal=1;startSize=26;horizontalStack=0;resizeParent=1;resizeParentMax=0;resizeLast=0;collapsible=1;marginBottom=0;" parent="WIyWlLk6GJQsqaUBKTNV-1" vertex="1">
                    <mxGeometry x="530" y="205" width="160" height="116" as="geometry"/>
                </mxCell>
                <mxCell id="CilM16NHA7BIHXgF7O5n-23" value="- builder: TempleBuilder" style="text;strokeColor=none;fillColor=none;align=left;verticalAlign=top;spacingLeft=4;spacingRight=4;overflow=hidden;rotatable=0;points=[[0,0.5],[1,0.5]];portConstraint=eastwest;" parent="CilM16NHA7BIHXgF7O5n-22" vertex="1">
                    <mxGeometry y="26" width="160" height="26" as="geometry"/>
                </mxCell>
                <mxCell id="CilM16NHA7BIHXgF7O5n-24" value="" style="line;strokeWidth=1;fillColor=none;align=left;verticalAlign=middle;spacingTop=-1;spacingLeft=3;spacingRight=3;rotatable=0;labelPosition=right;points=[];portConstraint=eastwest;" parent="CilM16NHA7BIHXgF7O5n-22" vertex="1">
                    <mxGeometry y="52" width="160" height="8" as="geometry"/>
                </mxCell>
                <mxCell id="CilM16NHA7BIHXgF7O5n-25" value="+ Director(builder)&#10;+ changeBuilder(builder)&#10;+ make(type)" style="text;strokeColor=none;fillColor=none;align=left;verticalAlign=top;spacingLeft=4;spacingRight=4;overflow=hidden;rotatable=0;points=[[0,0.5],[1,0.5]];portConstraint=eastwest;" parent="CilM16NHA7BIHXgF7O5n-22" vertex="1">
                    <mxGeometry y="60" width="160" height="56" as="geometry"/>
                </mxCell>
            </root>
        </mxGraphModel>
    </diagram>
</mxfile>